<svg width="1717" height="360" viewBox="0 0 1717 360" fill="none" xmlns="http://www.w3.org/2000/svg">
<g clip-path="url(#clip0_1_2)">
<path d="M112.365 2H129.635L242 244H215.119L184.408 176.718H56.5076L25.797 244H0L112.365 2ZM176.821 160.527L120.603 28.769L64.0949 160.527H176.821Z" fill="#962F30"/>
<path d="M280 143.96V3H305.048V142.226C305.048 199.087 328.368 224.591 379.184 224.591C427.912 224.591 451.952 202.193 451.952 143.96V3H477V141.865C477 211.152 436.837 248 378.464 248C320.811 248.072 280 211.514 280 143.96Z" fill="#962F30"/>
<path d="M604.784 26.8185H528V3H714V26.7463H629.993V244H604.856V26.8185H604.784Z" fill="#962F30"/>
<path d="M1042.07 3H1067.12V220.254H1201V244H1042V3H1042.07Z" fill="#962F30"/>
<path d="M1346.01 2H1363.13L1475 244H1448.24L1417.66 176.718H1290.33L1259.75 244H1234L1346.01 2ZM1410.18 160.527L1354.21 28.769L1297.95 160.527H1410.18Z" fill="#962F30"/>
<path d="M1526 3H1625.47C1652.66 3 1674.66 10.9347 1688.08 24.3517C1698.03 34.3062 1703.58 47.0739 1703.58 62.2221V62.9434C1703.58 95.6202 1682.23 112.139 1662.61 120.074C1691.54 127.648 1717 144.166 1717 177.564V178.286C1717 218.537 1682.59 244 1630.66 244H1526.07V3H1526ZM1623.38 106.945C1659.51 106.945 1678.12 96.6301 1678.12 64.6025V63.8812C1678.12 37.408 1663.7 26.7321 1625.11 26.7321H1551.1V106.945H1623.38ZM1631.31 220.124C1672.57 220.124 1691.54 208.438 1691.54 178.142V177.42C1691.54 147.845 1672.93 137.819 1625.47 137.819H1551.17V220.051H1631.31V220.124Z" fill="#962F30"/>
<path d="M980.719 123.122C980.719 98.4484 973.922 74.8539 961.557 55L944.637 76.8681C951.506 90.8953 955.266 106.937 955.266 123.841V124.489C955.266 179.878 915.352 224.693 859.674 224.693C850.057 224.693 839.428 222.607 830.823 220.089L816 239.44C828.871 244.044 843.767 248 859.024 248C932.128 248 980.791 189.302 980.791 123.769C981.081 123.482 981.081 123.482 980.719 123.122Z" fill="#962F30"/>
<path d="M763.441 124.389V123.74C763.441 68.2482 803.225 23.35 858.721 23.35C883.153 23.35 904.631 32.1423 921.063 46.772L938 28.4668C917.676 10.8102 890.937 0 859.369 0C786.504 0 738 58.8073 738 124.461V125.182C738 127.272 738.072 127.992 738.144 130.082L767.117 153C764.739 143.775 763.441 134.262 763.441 124.389Z" fill="#962F30"/>
<path d="M723.794 125.811L801.753 188.101L962.144 13L977 24.9126L804.927 243L708 137.867L723.794 125.811Z" fill="#962F30"/>
<g clip-path="url(#clip1_1_2)">
<path d="M686.51 265.498H684.729C684.638 267.562 683.536 268.455 681.47 268.455C677.322 268.455 670.611 263.44 663.494 263.44C643.247 263.44 631 283.314 631 300.823C631 318.446 642.659 335.858 662.204 335.858C674.063 335.858 678.508 330.257 681.664 330.257C683.742 330.257 684.929 332.821 685.322 334.288H686.806V310.172H685.322L684.729 313.521C683.343 321.499 675.941 334.089 663.204 334.089C651.938 334.089 647.601 323.558 647.601 299.64C647.601 274.557 653.519 265.202 663.494 265.202C674.754 265.202 683.149 278.68 684.729 288.728H686.51L686.51 265.498Z" fill="#962F30"/>
<path d="M740.367 325.935H738.615C738.615 328.465 737.542 331.377 735.202 331.377C733.45 331.377 732.971 329.534 732.971 326.526V304.189C732.971 293.123 722.539 290.399 712.507 290.399C702.765 290.399 695.649 295.165 695.649 300.596C695.649 304.002 697.595 306.908 701.978 306.908C705.681 306.908 707.924 304.485 707.924 301.079C707.924 296.427 703.062 296.712 702.954 295.062C702.868 292.924 708.512 292.157 711.828 292.157C719.126 292.157 720.108 295.733 720.108 301.568V309.717L710.555 310.496C701.698 311.178 692.048 313.51 692.048 323.603C692.048 332.053 699.644 335.46 707.148 335.46C710.943 335.46 717.665 333.993 720.205 329.341C721.957 333.413 725.564 335.46 729.941 335.46C736.275 335.46 740.367 331.667 740.367 325.935ZM720.108 322.739C719.914 327.885 716.98 332.537 712.409 332.537C705.784 332.537 705.499 326.526 705.499 321.477C705.499 316.319 706.075 312.924 712.409 312.247L720.108 311.468V322.739Z" fill="#962F30"/>
<path d="M740.916 334.287H770.054V332.535H761.089V307.759C761.089 300.287 763.429 295.044 769.569 292.32H769.957C768.302 294.066 767.618 295.612 767.618 298.041C767.618 301.833 770.443 304.358 774.243 304.358C778.923 304.358 781.651 300.975 781.651 297.273C781.651 292.604 778.529 289.789 773.952 289.789C767.715 289.789 762.938 294.066 761.089 298.922H760.895V289.016C758.847 291.535 751.639 291.535 747.644 291.535H740.916V293.275H747.644V332.535H740.916V334.287Z" fill="#962F30"/>
<path d="M783.173 334.287H809.082V332.535H803.335V305.916C803.335 300.975 808.209 293.872 813.659 293.872C816.483 293.872 819.417 295.044 819.417 301.833V332.535H813.858V334.287H839.573V332.535H832.851V305.433C832.851 294.941 828.371 290.375 819.114 290.375C812.597 290.375 806.16 293.77 803.529 299.4H803.335V289.016C801.286 291.535 794.09 291.535 790.09 291.535H783.173V293.275H789.896V332.535H783.173V334.287Z" fill="#962F30"/>
<path d="M853.769 310.796H880.665C880.568 300.31 870.821 290.216 860.589 290.398C849.101 290.398 839.148 300.31 839.148 313.412C839.148 326.036 848.405 335.459 860.885 335.459C872.869 335.459 878.816 328.072 880.956 318.456H879.204C877.064 327.492 871.409 333.121 863.807 333.121C854.745 333.121 853.769 325.547 853.769 318.95V310.796ZM853.769 309.039V300.697C853.769 294.186 856.6 292.156 859.91 292.156C864.578 292.156 866.05 295.351 866.05 300.697V309.039H853.769Z" fill="#962F30"/>
<path d="M929.046 294.775C929.046 291.369 925.348 289.629 922.421 289.629C919.214 289.629 916.777 291.767 914.916 293.9C912.086 291.864 908.199 290.397 902.744 290.397C894.56 290.397 885.783 295.736 885.783 304.579C885.783 309.913 888.711 314.087 893.875 316.418V316.606C890.075 317.089 884.129 319.716 884.129 327.774C884.129 332.619 886.371 336.315 890.463 337.487V337.674C886.565 338.732 882.085 342.616 882.085 347.279C882.085 354.461 890.566 359.999 901.38 359.999C914.916 359.999 923.79 350.872 923.79 339.033C923.79 329.61 919.111 325.346 909.563 325.539H893.385C890.948 325.539 887.638 325.442 887.638 322.826C887.638 320.393 891.833 317.777 895.531 317.777C896.603 317.777 897.671 318.067 898.749 318.351C899.913 318.743 901.18 318.943 902.744 318.943C911.121 318.943 920.081 314.177 920.081 304.959C920.081 301.854 918.626 297.493 915.898 295.161C917.65 293.416 918.529 291.272 922.329 290.794V290.988C920.281 292.051 919.698 293.313 919.698 295.264C919.698 297.493 921.257 299.728 924.173 299.728C927.3 299.728 929.046 297.391 929.046 294.775ZM892.027 337.771H907.321C917.062 337.771 920.281 338.641 920.281 344.566C920.281 351.652 911.515 358.248 901.671 358.248C892.9 358.248 888.135 352.328 887.929 347.677C887.929 343.4 889.39 340.586 892.027 337.771ZM908.981 304.578C908.878 316.514 906.345 317.191 902.841 317.191C898.943 317.191 896.894 315.929 896.894 304.277C896.894 296.424 897.773 292.153 902.841 292.153C907.418 292.153 908.878 293.416 908.981 304.578Z" fill="#962F30"/>
<path d="M930.568 334.287H957.481V332.535H950.752V289.016C948.704 291.535 941.485 291.535 937.496 291.535H930.568V293.275H937.29V332.535H930.568V334.287Z" fill="#962F30"/>
<path d="M937.066 276.516C937.066 280.366 940.153 283.453 944.022 283.453C947.892 283.453 950.979 280.366 950.979 276.516C950.979 272.666 947.892 269.59 944.022 269.59C940.153 269.59 937.066 272.666 937.066 276.516Z" fill="#962F30"/>
<path d="M972.095 310.796H998.979C998.894 300.31 989.141 290.216 978.909 290.398C967.416 290.398 957.469 300.31 957.469 313.412C957.469 326.036 966.742 335.459 979.2 335.459C991.19 335.459 997.142 328.072 999.276 318.456H997.524C995.384 327.492 989.734 333.121 982.127 333.121C973.071 333.121 972.095 325.547 972.095 318.95V310.796ZM972.095 309.039V300.697C972.095 294.186 974.92 292.156 978.235 292.156C982.909 292.156 984.37 295.351 984.37 300.697V309.039H972.095Z" fill="#962F30"/>
<path d="M1016.04 334.287H1034.94V332.541H1033.57C1028.31 332.541 1026.27 331.182 1026.27 323.317V268.289H1026.47L1049.74 334.287H1052.38L1075.07 269.454H1075.26V332.541H1066.88V334.287H1097.76V332.541H1090.45V267.703H1097.76V265.957H1074.28L1057.82 312.843H1057.63L1041.46 265.957H1016.53V267.703H1023.92V324.199C1023.92 328.373 1022.95 332.541 1016.43 332.541H1016.04L1016.04 334.287Z" fill="#962F30"/>
<path d="M1111.4 310.796H1138.29C1138.2 300.31 1128.45 290.216 1118.22 290.398C1106.72 290.398 1096.78 300.31 1096.78 313.412C1096.78 326.036 1106.04 335.459 1118.52 335.459C1130.49 335.459 1136.45 328.072 1138.58 318.456H1136.83C1134.7 327.492 1129.04 333.121 1121.44 333.121C1112.37 333.121 1111.4 325.547 1111.4 318.95V310.796ZM1111.4 309.039V300.697C1111.4 294.186 1114.22 292.156 1117.54 292.156C1122.22 292.156 1123.68 295.351 1123.68 300.697V309.039H1111.4Z" fill="#962F30"/>
<path d="M1138.55 334.287H1165.46V332.541H1158.73V263C1156.97 265.912 1151.61 265.912 1144.69 265.912H1138.55V267.663H1145.28V332.541H1138.55V334.287Z" fill="#962F30"/>
<path d="M1167.17 334.287H1194.08V332.541H1187.36V263C1185.59 265.912 1180.24 265.912 1173.31 265.912H1167.17V267.663H1173.89V332.541H1167.17V334.287Z" fill="#962F30"/>
<path d="M1239.35 312.923C1239.35 299.628 1229.02 290.399 1216.16 290.399C1203.3 290.399 1192.97 299.628 1192.97 312.923C1192.97 326.23 1203.3 335.459 1216.16 335.459C1229.02 335.459 1239.35 326.23 1239.35 312.923ZM1224.14 323.409C1224.14 330.7 1221.13 333.702 1216.16 333.702C1211.2 333.702 1208.17 330.7 1208.17 323.409V302.437C1208.17 295.164 1211.2 292.156 1216.16 292.156C1221.13 292.156 1224.14 295.164 1224.14 302.437V323.409Z" fill="#962F30"/>
<path d="M1239.41 334.287H1265.32V332.535H1259.58V305.916C1259.58 300.975 1264.45 293.872 1269.91 293.872C1272.73 293.872 1275.66 295.044 1275.66 301.833V332.535H1270.09V334.287H1295.82V332.535H1289.09V305.433C1289.09 294.941 1284.62 290.375 1275.36 290.375C1268.84 290.375 1262.4 293.77 1259.77 299.4H1259.58V289.016C1257.54 291.535 1250.32 291.535 1246.33 291.535H1239.41V293.275H1246.14V332.535H1239.41L1239.41 334.287Z" fill="#962F30"/>
<path d="M1309.39 267.703H1316.99V311.677C1316.99 326.718 1327.4 335.845 1343.29 335.845C1361.21 335.845 1369 326.422 1369 312.149V275.857C1369 270.228 1370.56 267.703 1374.07 267.703H1376.6V265.957H1357.32V267.703H1360.14C1365.11 267.703 1366.67 270.228 1366.67 275.857V312.746C1366.67 325.933 1358.68 332.342 1349.23 332.342C1335 332.342 1332.19 322.834 1332.19 310.414V267.703H1340.07V265.957H1309.39V267.703Z" fill="#962F30"/>
<path d="M1372.81 334.287H1398.72V332.535H1392.98V305.916C1392.98 300.975 1397.83 293.872 1403.29 293.872C1406.13 293.872 1409.04 295.044 1409.04 301.833V332.535H1403.5V334.287H1429.21V332.535H1422.5V305.433C1422.5 294.941 1418.01 290.375 1408.76 290.375C1402.23 290.375 1395.8 293.77 1393.17 299.4H1392.98V289.016C1390.92 291.535 1383.72 291.535 1379.72 291.535H1372.81V293.275H1379.52V332.535H1372.81V334.287Z" fill="#962F30"/>
<path d="M1430.63 334.287H1457.55V332.535H1450.82V289.016C1448.77 291.535 1441.56 291.535 1437.56 291.535H1430.63V293.275H1437.37V332.535H1430.63V334.287Z" fill="#962F30"/>
<path d="M1437.13 276.516C1437.13 280.366 1440.23 283.453 1444.1 283.453C1447.96 283.453 1451.04 280.366 1451.04 276.516C1451.04 272.666 1447.96 269.59 1444.1 269.59C1440.23 269.59 1437.13 272.666 1437.13 276.516Z" fill="#962F30"/>
<path d="M1477.28 335.459H1479.91L1494.33 301.47C1496.77 296.034 1498.81 293.412 1501.05 293.316H1501.94V291.564H1486.73V293.316H1488.59C1491.41 293.316 1493.07 294.379 1493.07 296.904C1493.07 298.468 1492.58 300.594 1491.41 303.313L1484.79 318.848L1473.39 293.316H1479.24V291.564H1454.78V293.316H1458.97L1477.28 335.459Z" fill="#962F30"/>
<path d="M1512.62 310.796H1539.52C1539.43 300.31 1529.68 290.216 1519.45 290.398C1507.95 290.398 1498.01 300.31 1498.01 313.412C1498.01 326.036 1507.27 335.459 1519.75 335.459C1531.73 335.459 1537.67 328.072 1539.82 318.456H1538.07C1535.92 327.492 1530.27 333.121 1522.67 333.121C1513.6 333.121 1513.3 325.547 1513.3 318.95L1512.62 310.796ZM1512.62 309.039V300.697C1512.62 294.186 1515.45 292.156 1518.77 292.156C1523.44 292.156 1524.9 295.351 1524.9 300.697V309.039H1512.62Z" fill="#962F30"/>
<path d="M1539.75 334.287H1568.88V332.535H1559.92V307.759C1559.92 300.287 1562.26 295.044 1568.4 292.32H1568.79C1567.13 294.066 1566.45 295.612 1566.45 298.041C1566.45 301.833 1569.27 304.358 1573.07 304.358C1577.75 304.358 1580.48 300.975 1580.48 297.273C1580.48 292.604 1577.37 289.789 1572.78 289.789C1566.55 289.789 1561.77 294.066 1559.92 298.922H1559.73V289.016C1557.68 291.535 1550.47 291.535 1546.47 291.535H1539.75V293.275H1546.47V332.535H1539.75V334.287Z" fill="#962F30"/>
<path d="M1582.6 335.459H1584.35C1584.85 333.895 1586.4 333.121 1588.36 333.121C1590.88 333.121 1593.9 335.459 1599.36 335.459C1608.63 335.459 1614.95 327.492 1614.95 319.531C1614.95 307.685 1606.78 306.81 1596.34 305.354C1590.88 304.575 1587.48 303.699 1587.48 299.423C1587.48 294.862 1591.47 292.156 1596.73 292.156C1604.04 292.156 1607.94 297.876 1610.38 304.188H1611.94L1611.35 290.398H1609.89C1609.89 291.564 1608.73 292.536 1606.87 292.536C1603.75 292.536 1601.21 290.398 1596.73 290.398C1586.99 290.398 1582.22 298.661 1582.22 304.871C1582.22 317.398 1591.76 318.456 1599.16 319.332C1606.19 320.213 1609.11 320.884 1609.11 325.354C1609.11 330.506 1604.83 333.701 1599.56 333.701C1592.16 333.701 1586.11 326.229 1584.35 319.144H1582.6V335.459Z" fill="#962F30"/>
<path d="M1616.68 334.287H1643.58V332.535H1636.86V289.016C1634.81 291.535 1627.6 291.535 1623.6 291.535H1616.68V293.275H1623.41V332.535H1616.68V334.287Z" fill="#962F30"/>
<path d="M1623.19 276.516C1623.19 280.366 1626.26 283.453 1630.13 283.453C1634.01 283.453 1637.09 280.366 1637.09 276.516C1637.09 272.666 1634.01 269.59 1630.13 269.59C1626.26 269.59 1623.19 272.666 1623.19 276.516Z" fill="#962F30"/>
<path d="M1647.44 293.32V324.386C1647.44 333.609 1655.43 335.457 1658.16 335.457C1664.1 335.457 1668.1 333.029 1671.12 327.98L1669.86 327.297C1668.69 329.043 1667.12 331.38 1664.68 331.38C1662.16 331.38 1660.89 329.532 1660.89 326.336V293.32H1669.86V291.58H1660.89V270.705H1659.13C1659.13 280.997 1652.11 291.58 1642.27 291.58V293.32H1647.44Z" fill="#962F30"/>
<path d="M1669.53 293.314H1673.62L1692.32 336.504L1691.74 340.382C1691.35 343.202 1689.4 354.274 1686.18 355.235V354.951C1686.57 353.586 1686.67 352.528 1686.67 351.653C1686.67 348.349 1684.34 345.824 1680.24 345.824C1675.96 345.824 1673.82 348.741 1673.82 352.426C1673.82 356.407 1677.52 359.227 1681.79 359.227C1689.5 359.227 1691.44 350.771 1692.32 346.7L1694.95 334.86L1700.02 322.242L1709.66 300.587C1711.81 295.652 1713.75 293.314 1715.9 293.314H1716.68V291.563H1701.49V293.314H1703.53C1706.64 293.314 1708.01 295.066 1708.01 296.715C1708.01 298.643 1706.74 301.856 1705.19 305.54L1699.54 318.841L1688.13 293.314H1694.57V291.563H1669.53L1669.53 293.314Z" fill="#962F30"/>
</g>
<path d="M559.8 334.768C558.392 334.768 556.963 334.427 555.512 333.744C554.104 333.019 552.781 331.973 551.544 330.608H551.288L550.52 334H543.16V289.136H552.568V300.144L552.312 305.008C553.549 303.899 554.893 303.045 556.344 302.448C557.795 301.808 559.245 301.488 560.696 301.488C563.256 301.488 565.475 302.149 567.352 303.472C569.229 304.795 570.659 306.672 571.64 309.104C572.664 311.493 573.176 314.309 573.176 317.552C573.176 321.179 572.536 324.293 571.256 326.896C569.976 329.456 568.312 331.419 566.264 332.784C564.259 334.107 562.104 334.768 559.8 334.768ZM557.624 327.088C559.245 327.088 560.632 326.341 561.784 324.848C562.936 323.355 563.512 320.987 563.512 317.744C563.512 312.027 561.677 309.168 558.008 309.168C556.131 309.168 554.317 310.128 552.568 312.048V325.04C553.421 325.808 554.275 326.341 555.128 326.64C555.981 326.939 556.813 327.088 557.624 327.088ZM582.868 346.416C581.929 346.416 581.097 346.352 580.372 346.224C579.689 346.096 579.028 345.947 578.388 345.776L580.052 338.608C580.35 338.651 580.692 338.715 581.076 338.8C581.46 338.928 581.822 338.992 582.164 338.992C583.742 338.992 584.958 338.608 585.812 337.84C586.665 337.072 587.305 336.069 587.732 334.832L588.18 333.168L575.956 302.256H585.428L589.972 315.888C590.441 317.339 590.868 318.811 591.252 320.304C591.636 321.797 592.041 323.333 592.468 324.912H592.724C593.065 323.419 593.406 321.925 593.748 320.432C594.132 318.896 594.516 317.381 594.9 315.888L598.74 302.256H607.764L596.756 334.32C595.774 336.965 594.686 339.184 593.492 340.976C592.297 342.811 590.846 344.176 589.14 345.072C587.476 345.968 585.385 346.416 582.868 346.416Z" fill="#962F30"/>
</g>
<defs>
<clipPath id="clip0_1_2">
<rect width="1717" height="360" fill="white"/>
</clipPath>
<clipPath id="clip1_1_2">
<rect width="1086" height="97" fill="white" transform="translate(631 263)"/>
</clipPath>
</defs>
</svg>
